<svg width="30" height="22" viewBox="0 0 24 24" fill="none" xmlns="http://www.w3.org/2000/svg">
<path fill-rule="evenodd" clip-rule="evenodd" d="M21 12C21 7.02944 16.9706 3 12 3C7.02944 3 3 7.02944 3 12C3 16.9706 7.02944 21 12 21C16.9706 21 21 16.9706 21 12ZM11.0259 15.3268L15.4741 8.04801C15.6685 7.72991 16.0839 7.62963 16.402 7.82402C16.7201 8.01841 16.8204 8.43387 16.626 8.75197L11.676 16.852C11.4319 17.2514 10.8653 17.2872 10.5729 16.9217L6.97294 12.4217C6.74006 12.1306 6.78725 11.7058 7.07836 11.4729C7.36946 11.24 7.79423 11.2872 8.02711 11.5783L11.0259 15.3268Z" fill="currentColor" />
</svg>
